<?xml version="1.0" standalone="no"?>
<!DOCTYPE svg PUBLIC "-//W3C//DTD SVG 20010904//EN"
 "http://www.w3.org/TR/2001/REC-SVG-20010904/DTD/svg10.dtd">
<svg version="1.0" xmlns="http://www.w3.org/2000/svg"
 width="2000.000000pt" height="2000.000000pt" viewBox="0 0 2000.000000 2000.000000"
 preserveAspectRatio="xMidYMid meet">
<metadata>
Created by potrace 1.14, written by Peter Selinger 2001-2017
</metadata>
<g transform="translate(0.000000,2000.000000) scale(0.100000,-0.100000)"
fill="#000000" stroke="none">
<path d="M9618 19995 c-2 -1 -68 -6 -148 -10 -80 -3 -161 -8 -180 -10 -19 -2
-73 -6 -120 -9 -47 -4 -107 -9 -135 -12 -27 -2 -66 -6 -85 -8 -47 -5 -174 -20
-180 -21 -3 -1 -36 -5 -75 -9 -38 -5 -79 -10 -90 -12 -11 -2 -40 -7 -65 -10
-57 -7 -90 -12 -165 -25 -33 -6 -69 -12 -80 -14 -43 -7 -251 -45 -270 -49
-132 -29 -225 -49 -245 -52 -150 -28 -654 -169 -935 -262 -290 -96 -687 -250
-900 -348 -33 -15 -62 -28 -65 -29 -35 -10 -441 -211 -614 -305 -201 -109
-202 -109 -371 -211 -77 -46 -147 -87 -155 -92 -8 -4 -42 -25 -75 -47 -33 -21
-79 -51 -103 -65 -78 -48 -394 -269 -542 -380 -126 -94 -446 -348 -460 -365
-3 -3 -45 -40 -95 -82 -329 -278 -743 -693 -1051 -1053 -172 -201 -274 -329
-446 -560 -81 -110 -151 -204 -156 -210 -30 -39 -295 -446 -364 -560 -84 -140
-104 -173 -183 -315 -213 -381 -356 -679 -540 -1125 -88 -213 -219 -579 -277
-775 -35 -116 -109 -375 -113 -390 -2 -8 -17 -69 -34 -135 -25 -101 -77 -325
-95 -415 -3 -14 -7 -36 -10 -50 -11 -48 -16 -75 -21 -110 -3 -19 -10 -55 -15
-80 -5 -25 -11 -58 -14 -75 -2 -16 -9 -61 -16 -100 -6 -38 -13 -79 -15 -90
-12 -87 -35 -260 -40 -304 -4 -30 -8 -61 -10 -70 -1 -9 -6 -48 -10 -88 -4 -40
-8 -85 -10 -100 -2 -15 -6 -73 -10 -128 -4 -55 -8 -110 -10 -123 -27 -168 -26
-1129 0 -1427 2 -22 6 -76 10 -120 8 -112 15 -184 20 -225 3 -19 7 -57 10 -85
4 -27 11 -86 16 -130 6 -44 13 -98 15 -120 3 -22 10 -69 16 -105 5 -36 12 -78
14 -95 2 -16 11 -68 20 -115 8 -47 17 -98 20 -115 58 -344 212 -939 352 -1360
135 -406 321 -853 526 -1264 103 -207 145 -287 253 -478 198 -354 568 -910
778 -1171 7 -9 51 -64 96 -122 397 -505 883 -1003 1428 -1462 251 -212 630
-492 931 -689 141 -92 427 -269 436 -269 3 0 18 -8 32 -19 15 -10 52 -32 82
-49 30 -16 102 -55 160 -87 935 -513 2031 -890 3110 -1069 52 -9 104 -18 115
-20 11 -2 47 -7 80 -12 33 -4 62 -8 65 -9 3 0 37 -5 75 -9 81 -9 130 -15 165
-21 14 -2 57 -7 95 -10 39 -3 88 -8 110 -10 259 -28 524 -39 930 -40 373 0
619 8 850 30 145 13 359 35 382 39 10 2 47 7 83 11 36 4 72 9 80 10 8 1 40 6
70 10 30 4 93 13 140 21 47 8 101 17 120 20 29 5 113 20 270 50 60 11 211 45
285 63 44 11 91 22 105 25 20 4 233 58 275 70 13 3 111 32 200 58 209 61 581
188 785 268 30 12 73 29 95 37 22 8 54 21 70 28 17 8 77 34 135 59 537 228
1051 505 1570 845 282 185 676 477 900 667 297 253 423 369 689 635 154 154
185 187 311 324 121 133 136 150 219 250 46 55 88 102 92 103 5 2 9 10 9 17 0
7 4 15 9 17 15 5 237 289 377 483 114 157 240 343 333 492 45 70 86 135 91
143 18 26 145 243 177 300 105 190 157 287 243 460 54 107 109 220 123 250 67
144 97 212 97 215 0 3 11 28 24 57 27 59 127 308 176 438 139 366 314 955 385
1293 2 10 6 26 9 35 3 9 7 28 10 42 2 14 14 72 25 130 12 58 24 121 27 140 3
19 9 51 14 70 5 19 11 57 15 84 3 27 8 52 10 55 1 3 6 31 9 62 3 31 10 78 15
105 5 27 12 72 16 99 3 28 7 59 9 70 2 11 7 49 11 85 4 36 8 74 10 86 2 11 6
52 10 90 4 38 8 83 10 99 2 17 6 73 10 125 3 52 8 109 10 125 27 212 27 1049
0 1425 -21 288 -66 670 -109 921 -8 46 -17 101 -20 121 -3 21 -11 59 -17 85
-6 27 -12 59 -14 73 -3 22 -29 148 -70 335 -87 391 -325 1160 -436 1402 -10
24 -19 49 -19 56 0 7 -4 17 -8 22 -5 6 -15 26 -22 45 -71 188 -379 840 -459
970 -11 19 -24 42 -27 50 -16 34 -239 415 -286 488 -10 15 -21 34 -25 42 -31
65 -454 668 -565 805 -5 6 -50 62 -100 125 -89 111 -303 363 -379 445 -20 22
-65 71 -100 109 -182 198 -542 546 -745 721 -31 28 -62 55 -68 60 -14 13 -279
230 -326 267 -19 15 -69 53 -110 85 -195 152 -553 401 -775 538 -622 385
-1227 679 -1905 925 -63 23 -124 45 -135 50 -51 21 -460 146 -635 193 -105 29
-361 93 -400 101 -14 2 -47 10 -75 16 -27 6 -63 13 -79 15 -16 3 -45 9 -65 14
-20 6 -74 17 -121 25 -47 8 -96 18 -110 20 -14 3 -68 12 -120 21 -52 8 -106
17 -120 20 -14 3 -45 7 -70 10 -75 9 -113 14 -155 20 -62 10 -85 13 -155 20
-36 4 -78 9 -95 11 -16 2 -64 6 -105 10 -41 3 -91 7 -110 9 -19 2 -82 7 -140
10 -58 4 -125 9 -150 11 -50 5 -927 14 -932 9z"/>
</g>
</svg>
